# xmcd
#
# Track frame offsets:
#	150
#	14535
#	30202
#	42888
#	55025
#	68102
#	82778
#	104214
#	116402
#	129701
#	143539
#	155568
#	167968
#	180586
#	193607
#	206316
#	221943
#	234264
#	248467
#	263980
#	281166
#	295857
#
# Disc length: 4116 seconds
# Revision: 0
# Processed by: cddbd v1.5.2PL0 Copyright (c) Steve Scherf et al.
# Submitted via: dBpowerAMP V12.0
#
DISCID=38101216
DTITLE=Nat King Cole - When I Fall In Love
DYEAR=1989
DGENRE=Blues
TTITLE0=When I Fall In Love
TTITLE1=Unforgettable
TTITLE2=Love Is Here To Stay
TTITLE3=Autumn Leaves
TTITLE4=Smile
TTITLE5=Stardust
TTITLE6=A Nightingale Sang In Berkely Square
TTITLE7=Love Is Many Spendored Thing
TTITLE8=Tenderly
TTITLE9=Blue Gardenia
TTITLE10=Walkin' My Baby Back Home
TTITLE11=Love Letters
TTITLE12=Let's Fall In Love
TTITLE13=There Goes My Heart
TTITLE14=Let There Be Love
TTITLE15=The More I See You
TTITLE16=When You're Smiling
TTITLE17=Dear Lonely Hearts
TTITLE18=Too Young
TTITLE19=The Very Thought Of You
TTITLE20=For All We Know
TTITLE21=Darling Je Vous Aime Beaucoup
EXTD=
EXTT0=
EXTT1=
EXTT2=
EXTT3=
EXTT4=
EXTT5=
EXTT6=
EXTT7=
EXTT8=
EXTT9=
EXTT10=
EXTT11=
EXTT12=
EXTT13=
EXTT14=
EXTT15=
EXTT16=
EXTT17=
EXTT18=
EXTT19=
EXTT20=
EXTT21=
PLAYORDER=
